<svg width="14" height="13" viewBox="0 0 14 13" fill="none" xmlns="http://www.w3.org/2000/svg">
<g clip-path="url(#clip0_754_3360)">
<path d="M7.00878 -0.000483433C8.78157 -0.000483433 10.5544 -0.000483433 12.3271 -0.000483433C12.9166 -0.000483433 13.3411 0.293263 13.6799 0.742258C13.9183 1.05533 13.9975 1.40641 13.9969 1.8C13.9883 4.84913 13.987 7.89632 13.993 10.9416C13.993 11.5387 13.6993 11.9658 13.2406 12.3066C12.9301 12.5372 12.5855 12.6203 12.197 12.619C8.69396 12.6113 5.1909 12.6113 1.68784 12.619C1.08747 12.619 0.650711 12.3324 0.304786 11.8686C0.0761013 11.5632 -0.00957485 11.2244 -0.00828649 10.8417C0.00330878 7.94099 8.78721e-05 5.04346 8.78721e-05 2.14593C8.78721e-05 1.96942 -0.00764231 1.79227 8.78721e-05 1.61577C0.0161924 1.05082 0.304786 0.637901 0.743474 0.3113C1.06556 0.0729533 1.41922 -0.0107903 1.81861 -0.00563689C3.54888 0.00660256 5.27851 -0.000483433 7.00878 -0.000483433ZM7.0017 3.5554H4.26972C3.23581 3.5554 2.2019 3.5554 1.16799 3.55089C1.01918 3.55089 0.962495 3.605 0.974735 3.74994C0.982465 3.86203 0.977956 3.97476 0.977956 4.08749C0.977956 6.27299 0.977956 8.45848 0.977956 10.644C0.977956 10.939 1.04817 11.2051 1.27106 11.4093C1.47526 11.5961 1.72843 11.6444 1.9977 11.6444C5.28173 11.6444 8.56556 11.6444 11.8492 11.6444C12 11.6477 12.1509 11.6382 12.3001 11.616C12.4189 11.5973 12.5323 11.553 12.6323 11.4863C12.7324 11.4196 12.8169 11.332 12.8799 11.2295C13.0087 11.0318 13.0261 10.8218 13.0261 10.6027C13.0261 8.32106 13.0261 6.03936 13.0261 3.75767C13.0261 3.57666 13.0029 3.55218 12.8251 3.55218L7.0017 3.5554ZM8.29006 2.58913C9.80002 2.58913 11.3102 2.58913 12.8206 2.58913C12.963 2.58913 13.0306 2.54726 13.0209 2.39587C13.0061 2.1498 13.0138 1.90243 12.9849 1.65893C12.9696 1.55547 12.9331 1.45629 12.8777 1.3676C12.8222 1.27892 12.7491 1.20265 12.6628 1.14358C12.4663 1.00186 12.2395 0.965789 11.9986 0.965789C9.25655 0.965789 6.5147 0.965789 3.77306 0.965789C3.62683 0.965789 3.57336 1.01732 3.57594 1.16355C3.58238 1.57518 3.58238 1.98811 3.57594 2.39974C3.57594 2.54983 3.63327 2.59299 3.77628 2.59299C5.28109 2.58956 6.7859 2.5887 8.29071 2.59042L8.29006 2.58913ZM2.60516 1.7897C2.60516 1.57003 2.60516 1.35101 2.60516 1.13199C2.60516 1.01797 2.55942 0.963212 2.44347 0.965145C2.25601 0.965145 2.06856 0.961924 1.88174 0.971587C1.76399 0.969963 1.64694 0.990053 1.53646 1.03085C1.15833 1.20671 0.969581 1.51141 0.974091 1.93271C0.974091 2.09311 0.974091 2.2548 0.974091 2.41391C0.968937 2.54661 1.02691 2.59428 1.15639 2.59299C1.57898 2.58827 2.00156 2.58827 2.42414 2.59299C2.56586 2.59299 2.61289 2.53502 2.60838 2.39974C2.60001 2.19618 2.60516 1.99261 2.60516 1.7897Z" fill="#2F3857"/>
<path d="M4.87964 6.30651C4.93632 6.50492 4.79331 6.6228 4.67672 6.74198C4.43901 6.98483 4.18843 7.2148 3.94622 7.45058C3.92491 7.46741 3.90751 7.48868 3.89524 7.51291C3.88296 7.53713 3.8761 7.56374 3.87512 7.59088C3.87414 7.61802 3.87906 7.64505 3.88956 7.6701C3.90006 7.69515 3.91587 7.71761 3.93591 7.73595C4.2142 8.02068 4.49892 8.29896 4.78172 8.57854C4.95114 8.74602 4.92344 9.09388 4.72825 9.23625C4.43837 9.44367 4.1865 9.4134 3.93333 9.15572C3.56873 8.78532 3.19768 8.42071 2.82727 8.05546C2.67782 7.90923 2.57411 7.75656 2.5915 7.52659C2.60503 7.35781 2.71132 7.26441 2.8073 7.16714C3.23182 6.73682 3.66664 6.31553 4.09889 5.89294C4.2245 5.76991 4.5788 5.79116 4.70764 5.91356C4.82037 6.02307 4.917 6.13129 4.87964 6.30651Z" fill="#2F3857"/>
<path d="M11.3897 7.60169C11.4438 7.80203 11.3053 7.91734 11.1932 8.03201C10.8144 8.41852 10.4414 8.81404 10.0382 9.1735C9.75151 9.43117 9.56148 9.5001 9.19108 9.19347C9.08479 9.10521 9.06675 8.72837 9.17175 8.62143C9.4539 8.3337 9.74013 8.0494 10.0304 7.76854C10.0554 7.74901 10.0755 7.72407 10.0894 7.69562C10.1032 7.66716 10.1104 7.63592 10.1104 7.60427C10.1104 7.57262 10.1032 7.54138 10.0894 7.51292C10.0755 7.48446 10.0554 7.45953 10.0304 7.44C9.74121 7.15914 9.4539 6.8757 9.17239 6.58646C9.05773 6.46858 9.10798 6.12201 9.21362 5.99124C9.27073 5.91629 9.34953 5.86074 9.43932 5.83216C9.5291 5.80358 9.62551 5.80334 9.71544 5.83148C9.83542 5.86834 9.94419 5.9348 10.0317 6.02474C10.3854 6.36873 10.7294 6.72303 11.0766 7.07346C11.144 7.13229 11.2061 7.19696 11.2621 7.26672C11.3264 7.36891 11.3851 7.47449 11.438 7.58301L11.3897 7.60169Z" fill="#2F3857"/>
<path d="M6.34207 9.37513C6.11854 9.42538 5.97231 9.28366 5.89114 9.12133C5.8493 9.0337 5.83149 8.93653 5.83953 8.83975C5.84756 8.74298 5.88116 8.65008 5.93688 8.57055C6.01995 8.43494 6.09481 8.29447 6.16106 8.1499C6.34465 7.77434 6.52244 7.39556 6.70732 7.02065C6.86128 6.70758 7.02168 6.39773 7.17822 6.08594C7.29224 5.85919 7.69357 5.73164 7.8997 5.85919C8.1329 6.00478 8.21342 6.38098 8.07492 6.60837C7.97121 6.77908 7.89133 6.96525 7.79921 7.14369C7.66136 7.41167 7.52157 7.67836 7.38243 7.94634C7.31801 8.06809 7.25359 8.18855 7.19304 8.31288C7.0642 8.57442 6.95533 8.84433 6.8149 9.09878C6.72021 9.27658 6.58171 9.42152 6.34207 9.37513Z" fill="#2F3857"/>
</g>
<defs>
<clipPath id="clip0_754_3360">
<rect width="14" height="12.7902" fill="white"/>
</clipPath>
</defs>
</svg>
