<svg width="15" height="14" viewBox="0 0 15 14" fill="none" xmlns="http://www.w3.org/2000/svg">
<path d="M9.24811 13.9996C9.12233 13.9996 9.0017 13.9496 8.91276 13.8607C8.82382 13.7717 8.77385 13.6511 8.77385 13.5253V11.3911H4.97975C3.65904 11.3911 2.39242 10.8665 1.45854 9.93261C0.524651 8.99873 0 7.73211 0 6.41139C0 5.09068 0.524651 3.82406 1.45854 2.89018C2.39242 1.95629 3.65904 1.43164 4.97975 1.43164H9.24811C9.3739 1.43164 9.49453 1.48161 9.58347 1.57055C9.67241 1.65949 9.72238 1.78012 9.72238 1.9059C9.72238 2.03169 9.67241 2.15232 9.58347 2.24126C9.49453 2.3302 9.3739 2.38017 9.24811 2.38017H4.97975C3.91061 2.38017 2.88525 2.80488 2.12924 3.56088C1.37324 4.31689 0.948525 5.34225 0.948525 6.41139C0.948525 7.48054 1.37324 8.5059 2.12924 9.2619C2.88525 10.0179 3.91061 10.4426 4.97975 10.4426H9.24811C9.3739 10.4426 9.49453 10.4926 9.58347 10.5815C9.67241 10.6705 9.72238 10.7911 9.72238 10.9169V13.0077C11.7515 12.6323 13.2793 9.86971 13.2793 6.41139C13.2795 5.97128 13.2074 5.53413 13.0659 5.11737C13.0256 4.99788 13.0344 4.86725 13.0903 4.75423C13.1463 4.64121 13.2449 4.55505 13.3644 4.5147C13.4838 4.47436 13.6145 4.48313 13.7275 4.5391C13.8405 4.59507 13.9267 4.69364 13.967 4.81313C14.1407 5.32806 14.2288 5.86797 14.2279 6.41139C14.2279 10.7374 12.087 13.9996 9.24811 13.9996Z" fill="#2F3857"/>
<path d="M7.5882 5.70048H4.26836C4.14258 5.70048 4.02195 5.65051 3.93301 5.56157C3.84406 5.47263 3.7941 5.352 3.7941 5.22622C3.7941 5.10043 3.84406 4.9798 3.93301 4.89086C4.02195 4.80192 4.14258 4.75195 4.26836 4.75195H7.5882C7.71398 4.75195 7.83461 4.80192 7.92355 4.89086C8.01249 4.9798 8.06246 5.10043 8.06246 5.22622C8.06246 5.352 8.01249 5.47263 7.92355 5.56157C7.83461 5.65051 7.71398 5.70048 7.5882 5.70048Z" fill="#2F3857"/>
<path d="M7.11393 8.07157H4.26836C4.14258 8.07157 4.02195 8.02161 3.93301 7.93266C3.84406 7.84372 3.7941 7.72309 3.7941 7.59731C3.7941 7.47153 3.84406 7.3509 3.93301 7.26195C4.02195 7.17301 4.14258 7.12305 4.26836 7.12305H7.11393C7.23972 7.12305 7.36035 7.17301 7.44929 7.26195C7.53823 7.3509 7.5882 7.47153 7.5882 7.59731C7.5882 7.72309 7.53823 7.84372 7.44929 7.93266C7.36035 8.02161 7.23972 8.07157 7.11393 8.07157Z" fill="#2F3857"/>
<path d="M8.39807 8.69903C8.33167 8.69901 8.26602 8.68506 8.20536 8.65807C8.1447 8.63108 8.09038 8.59166 8.04592 8.54235C8.00146 8.49304 7.96785 8.43494 7.94726 8.37182C7.92668 8.3087 7.91957 8.24195 7.92641 8.17591L8.14457 6.06545C8.152 5.99225 8.17635 5.92178 8.21571 5.85962L11.5261 0.658857C11.7287 0.340502 12.0495 0.115683 12.4179 0.0338568C12.7863 -0.0479693 13.1721 0.0199005 13.4905 0.222536C13.8088 0.425171 14.0336 0.745972 14.1155 1.11437C14.1973 1.48276 14.1294 1.86858 13.9268 2.18693L10.6169 7.38816C10.5774 7.45025 10.524 7.50229 10.4609 7.54017L8.64207 8.63097C8.56841 8.67536 8.48407 8.69888 8.39807 8.69903ZM9.07626 6.27531L8.96718 7.33031L9.87682 6.7849L13.1255 1.67805C13.159 1.6255 13.1818 1.56688 13.1926 1.50552C13.2034 1.44416 13.202 1.38127 13.1885 1.32045C13.175 1.25963 13.1497 1.20206 13.1139 1.15104C13.0782 1.10002 13.0327 1.05654 12.9802 1.02309C12.9276 0.989624 12.869 0.966842 12.8076 0.956047C12.7462 0.945251 12.6833 0.946655 12.6225 0.960176C12.5617 0.973697 12.5041 0.999072 12.4531 1.03485C12.4021 1.07063 12.3586 1.11611 12.3252 1.16869L9.07626 6.27531Z" fill="#2F3857"/>
<path d="M12.8897 3.40658C12.7997 3.40663 12.7116 3.38087 12.6357 3.33236L11.0351 2.31388C10.929 2.24637 10.854 2.13946 10.8267 2.01667C10.7994 1.89389 10.822 1.76529 10.8895 1.65916C10.957 1.55303 11.0639 1.47807 11.1867 1.45076C11.3095 1.42346 11.4381 1.44605 11.5442 1.51356L13.1449 2.53323C13.2316 2.58833 13.2981 2.67011 13.3343 2.76625C13.3705 2.86239 13.3746 2.9677 13.3458 3.06633C13.317 3.16497 13.257 3.25159 13.1747 3.31316C13.0925 3.37474 12.9925 3.40794 12.8897 3.40777V3.40658Z" fill="#2F3857"/>
</svg>
