<svg width="15" height="14" viewBox="0 0 15 14" fill="none" xmlns="http://www.w3.org/2000/svg">
<path d="M13.5702 10.0772C13.5454 10.0567 10.743 8.06587 9.98637 8.18767C9.62135 8.25207 9.4129 8.5008 8.9946 8.99827C8.9273 9.07853 8.76512 9.27033 8.63986 9.40707C8.37548 9.32106 8.11761 9.21626 7.86823 9.09347C6.58086 8.46767 5.54071 7.42909 4.91396 6.14367C4.79098 5.89466 4.68602 5.63718 4.59989 5.3732C4.7373 5.24767 4.92985 5.08573 5.01211 5.01667C5.50799 4.60133 5.75664 4.39273 5.82113 4.0278C5.9534 3.27227 3.9493 0.475067 3.92874 0.449867C3.83747 0.320626 3.71861 0.213231 3.58072 0.135435C3.44283 0.0576376 3.28937 0.0113797 3.1314 0C2.31911 0 0 3.00347 0 3.5098C0 3.5392 0.042531 6.52773 3.73338 10.2765C7.48358 13.9575 10.4766 14 10.5061 14C11.0127 14 14.0212 11.6844 14.0212 10.8733C14.0097 10.7156 13.9633 10.5623 13.8853 10.4247C13.8073 10.287 13.6997 10.1683 13.5702 10.0772ZM10.4542 13.0639C10.0485 13.0293 7.53406 12.6985 4.39331 9.618C1.29322 6.4666 0.970267 3.95173 0.938018 3.56207C1.55064 2.60197 2.2905 1.72901 3.13748 0.966933C3.15617 0.9856 3.18094 1.0136 3.21272 1.05C3.86229 1.93537 4.42185 2.88319 4.88312 3.8794C4.73312 4.03007 4.57457 4.17202 4.40826 4.30453C4.15036 4.50074 3.91354 4.72313 3.7016 4.96813C3.66573 5.01837 3.64021 5.07522 3.62649 5.13538C3.61277 5.19553 3.61113 5.25781 3.62168 5.3186C3.72059 5.74641 3.87207 6.16037 4.07269 6.55107C4.79146 8.02481 5.98414 9.21552 7.46021 9.933C7.85143 10.1336 8.26603 10.285 8.69455 10.3838C8.75542 10.3946 8.81784 10.393 8.87813 10.3793C8.93841 10.3656 8.99533 10.34 9.04554 10.304C9.29178 10.0915 9.51529 9.85411 9.71248 9.5956C9.85924 9.42107 10.0551 9.1882 10.1294 9.1224C11.1296 9.58252 12.081 10.1419 12.9691 10.7921C13.0079 10.8248 13.0355 10.85 13.0537 10.8663C12.2905 11.7123 11.416 12.4512 10.4542 13.0629V13.0639Z" fill="#2F3857"/>
<path d="M10.2818 6.53314H11.2165C11.2154 5.54334 10.8211 4.5944 10.1202 3.8945C9.41922 3.19461 8.46884 2.80092 7.47754 2.7998V3.73314C8.22104 3.73388 8.93388 4.02912 9.45962 4.55406C9.98535 5.079 10.281 5.79076 10.2818 6.53314Z" fill="#2F3857"/>
<path d="M12.6186 6.53444H13.5534C13.5515 4.92603 12.9108 3.38402 11.7718 2.24671C10.6327 1.10939 9.08839 0.469626 7.47754 0.467773V1.40111C8.84055 1.40271 10.1473 1.94406 11.1111 2.9064C12.0749 3.86874 12.617 5.17349 12.6186 6.53444Z" fill="#2F3857"/>
</svg>
