<svg width="14" height="14" viewBox="0 0 14 14" fill="none" xmlns="http://www.w3.org/2000/svg">
<g clip-path="url(#clip0_754_3397)">
<path d="M13.7622 4.46179C13.4999 4.36108 13.2317 4.2718 12.9623 4.19508V4.17949C12.9623 4.06954 12.8964 3.97026 12.7951 3.92752C11.9111 3.55491 10.988 3.35885 10.0486 3.34061C10.1996 1.56486 8.78921 0.0273438 7 0.0273438C5.26138 0.0273438 3.86622 1.48291 3.94379 3.2209C2.96248 3.2422 2.03304 3.49412 1.18459 3.93709C1.10784 3.97715 1.0558 4.05079 1.04183 4.13451C0.764043 4.22989 0.487898 4.34219 0.218535 4.47002C0.12316 4.5153 0.0623474 4.61147 0.0623474 4.71704V13.6992C0.0623474 13.8882 0.249816 14.0201 0.427523 13.9568C2.71827 13.1408 4.93328 13.1986 6.90198 13.9545C6.95702 13.9756 7.0216 13.979 7.08212 13.96C9.10432 13.3231 11.3213 13.274 13.5848 13.9608C13.7603 14.0141 13.9376 13.8825 13.9376 13.6992V4.71704C13.9377 4.60389 13.8679 4.50239 13.7622 4.46179ZM12.4154 4.36346V11.9698C10.9614 11.6171 8.71823 11.7968 7.27344 12.2299V9.29324C7.8207 9.16852 8.23047 8.67828 8.23047 8.09378V7.68362H8.77735C8.92834 7.68362 9.05078 7.56118 9.05078 7.41018V5.43186C9.47152 5.01063 9.79429 4.47385 9.95228 3.88607C10.7946 3.89197 11.6192 4.05128 12.4154 4.36346ZM5.4961 6.58984H8.50391V7.13672C8.07128 7.13672 5.85734 7.13672 5.4961 7.13672V6.58984ZM6.31641 7.68359H7.6836V8.09375C7.6836 8.47068 7.37694 8.77734 7 8.77734C6.62307 8.77734 6.31641 8.47068 6.31641 8.09375V7.68359ZM7 0.574219C8.38546 0.574219 9.51262 1.70138 9.51262 3.08684C9.51262 3.87354 9.13232 4.61103 8.59089 5.11593C8.53541 5.16767 8.50391 5.24007 8.50391 5.3159V6.04297H5.4961V5.3159C5.4961 5.23945 5.46411 5.16649 5.40783 5.11473C4.85398 4.60491 4.48739 3.86135 4.48739 3.08684C4.48739 1.70138 5.61455 0.574219 7 0.574219ZM4.94922 5.43285V7.41016C4.94922 7.56115 5.07167 7.68359 5.22266 7.68359H5.76953V8.09375C5.76953 8.67825 6.17931 9.1685 6.72657 9.29321V12.2051C5.24328 11.6706 3.11137 11.5 1.58457 11.9502V4.34774C2.38159 3.95902 3.20261 3.77595 4.01754 3.76712C4.16134 4.40281 4.49767 4.98572 4.94922 5.43285ZM0.609222 13.3187V4.89218C0.750699 4.82899 0.893816 4.77053 1.0377 4.7168V12.3321C1.0377 12.5251 1.23225 12.6567 1.41083 12.5867C2.8948 12.0057 5.19786 12.1993 6.72657 12.7902V13.3102C4.69427 12.6259 2.57879 12.6933 0.609222 13.3187ZM13.3908 13.3361C11.335 12.7771 9.25761 12.7784 7.27344 13.3328V12.8033C8.77904 12.3308 11.1967 12.1228 12.6024 12.5915C12.7794 12.6505 12.9623 12.5184 12.9623 12.3321V4.76536C13.106 4.80905 13.2491 4.85611 13.3908 4.90708V13.3361Z" fill="#2F3857"/>
<path d="M10.6113 1.041L11.1582 0.494129C11.265 0.387352 11.265 0.214211 11.1582 0.107406C11.0514 0.000656247 10.8783 0.000656247 10.7715 0.107406L10.2246 0.654281C10.1178 0.761059 10.1178 0.934199 10.2246 1.041C10.3314 1.14775 10.5045 1.14778 10.6113 1.041Z" fill="#2F3857"/>
<path d="M10.6914 2.48828C10.6914 2.63927 10.8139 2.76172 10.9648 2.76172H11.7852C11.9361 2.76172 12.0586 2.63927 12.0586 2.48828C12.0586 2.33729 11.9361 2.21484 11.7852 2.21484H10.9648C10.8139 2.21484 10.6914 2.33729 10.6914 2.48828Z" fill="#2F3857"/>
<path d="M3.38868 1.041C3.49548 1.14775 3.66854 1.14778 3.7754 1.041C3.88218 0.934227 3.88218 0.761086 3.7754 0.654281L3.22852 0.107406C3.12172 0.000656247 2.94863 0.000656247 2.8418 0.107406C2.73502 0.214184 2.73502 0.387324 2.8418 0.494129L3.38868 1.041Z" fill="#2F3857"/>
<path d="M2.21484 2.76172H3.03516C3.18615 2.76172 3.30859 2.63927 3.30859 2.48828C3.30859 2.33729 3.18615 2.21484 3.03516 2.21484H2.21484C2.06385 2.21484 1.94141 2.33729 1.94141 2.48828C1.94141 2.63927 2.06385 2.76172 2.21484 2.76172Z" fill="#2F3857"/>
<path d="M9.32422 9.32422H11.2383C11.3893 9.32422 11.5117 9.20177 11.5117 9.05078C11.5117 8.89979 11.3893 8.77734 11.2383 8.77734H9.32422C9.17323 8.77734 9.05078 8.89979 9.05078 9.05078C9.05078 9.20177 9.17323 9.32422 9.32422 9.32422Z" fill="#2F3857"/>
<path d="M11.2383 9.87109H8.50391C8.35291 9.87109 8.23047 9.99354 8.23047 10.1445C8.23047 10.2955 8.35291 10.418 8.50391 10.418H11.2383C11.3893 10.418 11.5117 10.2955 11.5117 10.1445C11.5117 9.99354 11.3893 9.87109 11.2383 9.87109Z" fill="#2F3857"/>
<path d="M2.76172 9.32422H4.67578C4.82677 9.32422 4.94922 9.20177 4.94922 9.05078C4.94922 8.89979 4.82677 8.77734 4.67578 8.77734H2.76172C2.61073 8.77734 2.48828 8.89979 2.48828 9.05078C2.48828 9.20177 2.61073 9.32422 2.76172 9.32422Z" fill="#2F3857"/>
<path d="M2.76172 10.418H5.49609C5.64709 10.418 5.76953 10.2955 5.76953 10.1445C5.76953 9.99354 5.64709 9.87109 5.49609 9.87109H2.76172C2.61073 9.87109 2.48828 9.99354 2.48828 10.1445C2.48828 10.2955 2.61073 10.418 2.76172 10.418Z" fill="#2F3857"/>
</g>
<defs>
<clipPath id="clip0_754_3397">
<rect width="14" height="14" fill="white"/>
</clipPath>
</defs>
</svg>
