<svg width="14" height="14" viewBox="0 0 14 14" fill="none" xmlns="http://www.w3.org/2000/svg">
<g clip-path="url(#clip0_754_3344)">
<path d="M12.4919 1.09834C12.4919 1.09834 12.4918 1.09834 12.4917 1.09834H6.25467C6.07555 0.465378 5.493 0 4.80331 0H3.70508C3.0155 0 2.43285 0.465378 2.25372 1.09834H1.50839C0.676651 1.09834 0 1.77499 0 2.60684V12.4915C0 13.3233 0.676651 14 1.50839 14H12.4915C13.3232 14 13.9999 13.3233 13.9999 12.4915V2.60684C13.9999 1.77521 13.3235 1.09856 12.4919 1.09834ZM12.4915 1.91866C12.8709 1.91866 13.1796 2.22734 13.1796 2.60684V3.29492H9.19658C8.81718 3.29492 8.50839 2.98624 8.50839 2.60684V1.91866H12.4915ZM3.70508 0.820312H4.80331C5.18282 0.820312 5.4915 1.129 5.4915 1.5085V10.2949C5.4915 10.6743 5.18282 10.983 4.80331 10.983H3.70508C3.32558 10.983 3.01689 10.6744 3.01689 10.2949V1.5085C3.01689 1.129 3.32558 0.820312 3.70508 0.820312ZM12.4915 13.1797H1.50839C1.129 13.1797 0.820312 12.871 0.820312 12.4915V2.60684C0.820312 2.22734 1.129 1.91866 1.50839 1.91866H2.19658V10.2949C2.19658 11.1267 2.87323 11.8033 3.70508 11.8033H4.80331C5.63516 11.8033 6.31181 11.1267 6.31181 10.2949V1.91866H7.68808V2.60684C7.68808 3.43858 8.36484 4.11523 9.19658 4.11523H13.1796V12.4915C13.1796 12.871 12.871 13.1797 12.4915 13.1797Z" fill="#2F3857"/>
<path d="M8.09924 9.45703C7.99126 9.45703 7.88541 9.50072 7.80914 9.57698C7.73288 9.65335 7.68909 9.75909 7.68909 9.86719C7.68909 9.97485 7.73288 10.0807 7.80914 10.157C7.88541 10.2332 7.99126 10.2773 8.09924 10.2773C8.20723 10.2773 8.31287 10.2332 8.38913 10.157C8.46571 10.0807 8.5094 9.97485 8.5094 9.86719C8.5094 9.75909 8.46571 9.65335 8.38913 9.57698C8.31287 9.50072 8.20723 9.45703 8.09924 9.45703Z" fill="#2F3857"/>
<path d="M9.74536 9.45703C9.63737 9.45703 9.53152 9.50072 9.45526 9.57698C9.379 9.65335 9.33521 9.75909 9.33521 9.86719C9.33521 9.97485 9.379 10.0807 9.45526 10.157C9.53152 10.2332 9.63737 10.2773 9.74536 10.2773C9.85335 10.2773 9.95898 10.2332 10.0352 10.157C10.1118 10.0807 10.1555 9.97517 10.1555 9.86719C10.1555 9.75909 10.1118 9.65335 10.0352 9.57698C9.95898 9.50072 9.85335 9.45703 9.74536 9.45703Z" fill="#2F3857"/>
<path d="M11.3914 9.45703C11.2834 9.45703 11.1775 9.50072 11.1013 9.57698C11.025 9.65335 10.9812 9.75909 10.9812 9.86719C10.9812 9.97485 11.025 10.0807 11.1013 10.157C11.1775 10.2336 11.2834 10.2773 11.3914 10.2773C11.4991 10.2773 11.605 10.2336 11.6812 10.157C11.7578 10.0807 11.8015 9.97485 11.8015 9.86719C11.8015 9.75909 11.7578 9.65335 11.6812 9.57698C11.605 9.50072 11.4991 9.45703 11.3914 9.45703Z" fill="#2F3857"/>
<path d="M8.09924 7.7002C7.99126 7.7002 7.88541 7.74399 7.80914 7.82025C7.73288 7.89651 7.68909 8.00237 7.68909 8.11035C7.68909 8.21844 7.73288 8.32419 7.80914 8.40056C7.88541 8.47682 7.99126 8.52051 8.09924 8.52051C8.20723 8.52051 8.31287 8.47682 8.38913 8.40056C8.46571 8.32419 8.5094 8.21844 8.5094 8.11035C8.5094 8.00237 8.46571 7.89651 8.38913 7.82025C8.31287 7.74399 8.20723 7.7002 8.09924 7.7002Z" fill="#2F3857"/>
<path d="M9.74536 7.7002C9.63737 7.7002 9.53152 7.74399 9.45526 7.82025C9.379 7.89684 9.33521 8.00237 9.33521 8.11035C9.33521 8.21844 9.379 8.32397 9.45526 8.40056C9.53152 8.47682 9.63737 8.52051 9.74536 8.52051C9.85335 8.52051 9.95898 8.47682 10.0352 8.40056C10.1118 8.32397 10.1555 8.21844 10.1555 8.11035C10.1555 8.00237 10.1118 7.89684 10.0352 7.82025C9.95898 7.74399 9.85335 7.7002 9.74536 7.7002Z" fill="#2F3857"/>
<path d="M11.3914 7.7002C11.2834 7.7002 11.1775 7.74399 11.1013 7.82025C11.025 7.89684 10.9812 8.00237 10.9812 8.11035C10.9812 8.21844 11.025 8.32397 11.1013 8.40056C11.1775 8.47682 11.2834 8.52051 11.3914 8.52051C11.4991 8.52051 11.605 8.47682 11.6812 8.40056C11.7578 8.32397 11.8015 8.21844 11.8015 8.11035C11.8015 8.00237 11.7578 7.89684 11.6812 7.82025C11.605 7.74399 11.4993 7.7002 11.3914 7.7002Z" fill="#2F3857"/>
<path d="M8.09924 5.71094C7.99126 5.71094 7.88541 5.75462 7.80914 5.83099C7.73288 5.90726 7.68909 6.01311 7.68909 6.12109C7.68909 6.22908 7.73288 6.33461 7.80914 6.41087C7.88541 6.48746 7.99126 6.53125 8.09924 6.53125C8.20702 6.53125 8.31287 6.48746 8.38913 6.41087C8.46571 6.33461 8.5094 6.22908 8.5094 6.12109C8.5094 6.01311 8.46571 5.90726 8.38913 5.83099C8.31287 5.75462 8.20723 5.71094 8.09924 5.71094Z" fill="#2F3857"/>
<path d="M9.74536 5.71094C9.63737 5.71094 9.53152 5.75462 9.45526 5.83099C9.379 5.90726 9.33521 6.01311 9.33521 6.12109C9.33521 6.22887 9.379 6.33461 9.45526 6.41087C9.53152 6.48746 9.63737 6.53125 9.74536 6.53125C9.85335 6.53125 9.95898 6.48746 10.0352 6.41087C10.1118 6.33461 10.1555 6.22908 10.1555 6.12109C10.1555 6.01311 10.1118 5.90726 10.0352 5.83099C9.95898 5.75462 9.85335 5.71094 9.74536 5.71094Z" fill="#2F3857"/>
<path d="M11.3914 5.71094C11.2834 5.71094 11.1775 5.75462 11.1013 5.83099C11.025 5.90726 10.9812 6.01311 10.9812 6.12109C10.9812 6.22908 11.025 6.33461 11.1013 6.41087C11.1775 6.48746 11.2834 6.53125 11.3914 6.53125C11.4993 6.53125 11.605 6.48746 11.6812 6.41087C11.7578 6.33461 11.8015 6.22908 11.8015 6.12109C11.8015 6.01311 11.7578 5.90726 11.6812 5.83099C11.605 5.75462 11.4993 5.71094 11.3914 5.71094Z" fill="#2F3857"/>
</g>
<defs>
<clipPath id="clip0_754_3344">
<rect width="14" height="14" fill="white"/>
</clipPath>
</defs>
</svg>
