<svg width="16" height="16" viewBox="0 0 16 16" fill="none" xmlns="http://www.w3.org/2000/svg">
<path d="M1 14.5306V2.56514C1 2.15004 1.1649 1.75194 1.45842 1.45842C1.75194 1.1649 2.15004 1 2.56514 1H13.5211C13.9362 1 14.3343 1.1649 14.6278 1.45842C14.9214 1.75194 15.0863 2.15004 15.0863 2.56514V10.3908C15.0863 10.8059 14.9214 11.204 14.6278 11.4976C14.3343 11.7911 13.9362 11.956 13.5211 11.956H4.88233C4.64774 11.956 4.41616 12.0088 4.20471 12.1104C3.99326 12.212 3.80735 12.3598 3.66074 12.5429L1.83657 14.8233C1.77586 14.8994 1.69301 14.9547 1.59948 14.9817C1.50595 15.0086 1.40636 15.0058 1.31448 14.9737C1.22261 14.9415 1.143 14.8816 1.08666 14.8022C1.03032 14.7229 1.00004 14.628 1 14.5306Z" stroke="#2F3857"/>
<circle cx="5.33064" cy="6.61263" r="1.01692" fill="#2F3857"/>
<circle cx="8.04256" cy="6.61263" r="1.01692" fill="#2F3857"/>
<circle cx="10.7545" cy="6.61263" r="1.01692" fill="#2F3857"/>
</svg>
