<svg width="18" height="18" viewBox="0 0 18 18" fill="none" xmlns="http://www.w3.org/2000/svg">
<path d="M7.42856 5.97055C7.21446 5.97544 7.02623 5.77863 7.04234 5.56383L7.12935 3.88452L6.08637 2.61763C6.00329 2.51673 5.97682 2.38075 6.01595 2.25605C6.05508 2.13135 6.15454 2.03488 6.28033 1.99951L7.88869 1.54761L8.79435 0.173848C8.86589 0.0653203 8.98718 0 9.11719 0C9.2472 0 9.36848 0.0653203 9.44006 0.173883L10.3457 1.54765L11.9541 1.99955C12.0799 2.03488 12.1793 2.13138 12.2185 2.25608C12.2576 2.38078 12.2311 2.51677 12.148 2.61766L11.105 3.88455L11.192 5.56386C11.1988 5.69542 11.1383 5.82138 11.0312 5.89816C10.9242 5.97491 10.7855 5.99193 10.663 5.94327L9.11719 5.32877L7.57137 5.9432C7.52524 5.96155 7.47676 5.97055 7.42856 5.97055ZM7.0603 2.58377L7.82189 3.50884C7.88327 3.58341 7.91453 3.67822 7.90954 3.77466L7.84594 5.00178L8.97435 4.55326C9.06611 4.5168 9.1683 4.5168 9.26003 4.55326L10.3884 5.00178L10.3248 3.77466C10.3198 3.67822 10.3511 3.58341 10.4124 3.50884L11.174 2.58381L9.99761 2.25327C9.90803 2.2281 9.83054 2.1715 9.77932 2.09384L9.11719 1.08932L8.45502 2.09377C8.4038 2.17146 8.32631 2.22806 8.23677 2.2532L7.0603 2.58377Z" fill="#2F3857"/>
<path d="M9.0874 11.4175C7.82125 11.4175 6.79117 10.3874 6.79117 9.12127C6.91731 6.07502 11.258 6.0759 11.3836 9.12127C11.3836 10.3875 10.3536 11.4175 9.0874 11.4175ZM9.0874 7.59852C8.24773 7.59852 7.56461 8.28164 7.56461 9.12131C7.64824 11.1415 10.5269 11.1409 10.6102 9.12131C10.6102 8.28164 9.92707 7.59852 9.0874 7.59852Z" fill="#2F3857"/>
<path d="M12.6276 18.0004H5.54295C5.32938 18.0004 5.15623 17.8273 5.15623 17.6137V14.2622C3.53395 13.0272 2.57144 11.0941 2.57144 9.05075V7.97254C2.57144 7.14225 3.24672 6.4668 4.07673 6.4668C4.90701 6.4668 5.58247 7.14229 5.58247 7.97254V9.07114C5.58247 11.0199 7.16812 12.6053 9.11715 12.6053C11.0659 12.6053 12.6513 11.0199 12.6513 9.07114V7.97254C12.6513 7.14225 13.3266 6.4668 14.1566 6.4668C14.9871 6.4668 15.6623 7.14229 15.6623 7.97254V8.98427C15.6623 11.075 14.6762 13.0443 13.0144 14.2932V17.6137C13.0144 17.8273 12.8412 18.0004 12.6276 18.0004ZM5.92967 17.227H12.2409V14.0964C12.2409 13.9706 12.3021 13.8527 12.4049 13.7802C13.9603 12.6845 14.8889 10.8916 14.8889 8.98423V7.9725C14.8889 7.5687 14.5606 7.2402 14.1571 7.2402C13.7531 7.2402 13.4247 7.5687 13.4247 7.9725V9.0711C13.4247 11.4463 11.4923 13.3787 9.11715 13.3787C6.74164 13.3787 4.80903 11.4463 4.80903 9.0711V7.9725C4.80903 7.5687 4.48053 7.2402 4.07673 7.2402C3.67317 7.2402 3.34488 7.5687 3.34488 7.9725V9.05071C3.34488 10.9118 4.25057 12.6694 5.7676 13.7521C5.86931 13.8247 5.92967 13.9419 5.92967 14.0669V17.227Z" fill="#2F3857"/>
<path d="M5.30902 5.13163C5.21005 5.13163 5.11109 5.09387 5.03557 5.01835L2.98392 2.9667C2.63594 2.59053 3.15299 2.07117 3.53085 2.41981L5.58246 4.47143C5.82609 4.71344 5.64873 5.1338 5.30902 5.13163Z" fill="#2F3857"/>
<path d="M13.0529 5.13169C12.7137 5.13366 12.5354 4.71421 12.7794 4.47153L14.8311 2.41991C14.9821 2.26888 15.2269 2.26888 15.378 2.41991C15.529 2.57095 15.529 2.81577 15.378 2.9668L13.3264 5.01842C13.2508 5.09393 13.1519 5.13169 13.0529 5.13169Z" fill="#2F3857"/>
</svg>
